<svg width="68" height="68" viewBox="0 0 68 68" fill="none" xmlns="http://www.w3.org/2000/svg">
<path d="M0.67627 0.00201416L0.499997 67.002" stroke="white"/>
<path d="M67 67.4999C67.2761 67.4999 67.5 67.2761 67.5 66.9999C67.5 66.7238 67.2761 66.4999 67 66.4999V67.4999ZM0 67.4999H67V66.4999H0V67.4999Z" fill="white"/>
<line y1="-0.5" x2="24.3811" y2="-0.5" transform="matrix(0.571159 -0.820839 0.686326 0.727294 5.99326 46.7694)" stroke="white"/>
<path d="M18.1855 25.0459C17.1062 26.048 17.0437 27.7353 18.0459 28.8145C19.048 29.8938 20.7353 29.9563 21.8145 28.9541C22.8938 27.952 22.9563 26.2647 21.9541 25.1855C20.952 24.1062 19.2647 24.0437 18.1855 25.0459ZM19.6336 27.3402L32.6336 41.3402L33.3664 40.6598L20.3664 26.6598L19.6336 27.3402Z" fill="white"/>
<path d="M31.4181 43.1468C32.6038 44.0205 34.2732 43.7675 35.1468 42.5819C36.0205 41.3962 35.7675 39.7268 34.5819 38.8532C33.3962 37.9795 31.7268 38.2325 30.8532 39.4181C29.9795 40.6038 30.2325 42.2732 31.4181 43.1468ZM33.4025 41.2966L47.4025 22.2966L46.5975 21.7034L32.5975 40.7034L33.4025 41.2966Z" fill="white"/>
<path d="M45.4702 21.8433C45.9359 23.2405 47.4461 23.9955 48.8433 23.5298C50.2405 23.0641 50.9955 21.5539 50.5298 20.1567C50.0641 18.7595 48.5539 18.0045 47.1567 18.4702C45.7595 18.9359 45.0045 20.4461 45.4702 21.8433ZM48.1581 21.4743L55.6581 18.9743L55.3419 18.0257L47.8419 20.5257L48.1581 21.4743ZM55.6581 18.9743L63.1581 16.4743L62.8419 15.5257L55.3419 18.0257L55.6581 18.9743Z" fill="white"/>
</svg>
