<svg width="67" height="67" viewBox="0 0 67 67" fill="none" xmlns="http://www.w3.org/2000/svg">
<rect width="67" height="67" rx="10" fill="white"/>
<mask id="path-2-inside-1_9_68" fill="white">
<path d="M5.49179 15.5901C5.49179 10.6196 9.52123 6.59015 14.4918 6.59015H52.5082C57.4787 6.59015 61.5082 10.6196 61.5082 15.5901V52.5082C61.5082 57.4788 57.4787 61.5082 52.5082 61.5082H14.4918C9.52123 61.5082 5.49179 57.4787 5.49179 52.5082V15.5901Z"/>
</mask>
<path d="M5.49179 15.5901C5.49179 10.0673 9.96894 5.59015 15.4918 5.59015H51.5082C57.031 5.59015 61.5082 10.0673 61.5082 15.5901C61.5082 11.1719 57.4787 7.59015 52.5082 7.59015H14.4918C9.52123 7.59015 5.49179 11.1719 5.49179 15.5901ZM61.5082 52.5082C61.5082 58.031 57.031 62.5082 51.5082 62.5082H15.4918C9.96894 62.5082 5.49179 58.031 5.49179 52.5082C5.49179 56.9265 9.52123 60.5082 14.4918 60.5082H52.5082C57.4787 60.5082 61.5082 56.9265 61.5082 52.5082ZM5.49179 61.5082V6.59015V61.5082ZM61.5082 6.59015V61.5082V6.59015Z" fill="black" mask="url(#path-2-inside-1_9_68)"/>
<rect x="13.1803" y="16.4754" width="9.88525" height="6.59016" rx="1" fill="#EAE8E8"/>
<rect x="13.1803" y="30.7541" width="9.88525" height="6.59016" rx="1" fill="#EAE8E8"/>
<rect x="13.1803" y="45.0328" width="9.88525" height="6.59016" rx="1" fill="#EAE8E8"/>
<rect x="28.5574" y="45.0328" width="27.459" height="6.59016" rx="2" fill="#EAE8E8"/>
<rect x="28.5574" y="30.7541" width="27.459" height="6.59016" rx="2" fill="#EAE8E8"/>
<rect x="28.5574" y="16.4754" width="27.459" height="6.59016" rx="2" fill="#EAE8E8"/>
</svg>
