<svg width="67" height="73" viewBox="0 0 67 73" fill="none" xmlns="http://www.w3.org/2000/svg">
<path d="M33.15 72.352C34.6227 72.3667 35.827 71.1847 35.8401 69.712C35.8531 68.2393 34.6697 67.0335 33.1971 67.0188C31.7244 67.0041 30.52 68.1861 30.507 69.6588C30.494 71.1315 31.6773 72.3372 33.15 72.352ZM33.7594 3.33126L28.3607 1.27863L29.2879 6.97833L33.7594 3.33126ZM30.0223 3.93496L30.1026 4.42857L30.0223 3.93496ZM33.2757 69.1961L29.1855 68.337L28.981 69.3157L33.0713 70.1747L33.2757 69.1961ZM2.32639 42.2582L2.1691 41.6057L1.19697 41.8389L1.35425 42.4915L2.32639 42.2582ZM2.16526 30.3232C5.40575 16.8464 16.4182 6.63916 30.1026 4.42857L29.942 3.44135C15.86 5.71617 4.52761 16.22 1.19297 30.0884L2.16526 30.3232ZM29.1855 68.337C15.952 65.5577 5.49514 55.4046 2.32639 42.2582L1.35425 42.4915C4.61358 56.0136 15.3693 66.4569 28.981 69.3157L29.1855 68.337ZM2.1691 41.6057C1.2752 37.8971 1.27388 34.0304 2.16526 30.3232L1.19297 30.0884C0.264607 33.9493 0.265979 37.9765 1.19697 41.8389L2.1691 41.6057Z" fill="white"/>
<path d="M33.8499 0.646449C32.3772 0.631672 31.1729 1.81355 31.16 3.28626C31.147 4.75896 32.3304 5.9648 33.8031 5.97958C35.2758 5.99435 36.4801 4.81247 36.493 3.33977C36.506 1.86707 35.3226 0.661226 33.8499 0.646449ZM33.2435 69.6672L38.6422 71.7201L37.7148 66.0203L33.2435 69.6672ZM36.9805 69.0636L36.9002 68.57L36.9805 69.0636ZM33.7243 3.80233L37.8146 4.66158L38.019 3.68294L33.9287 2.82369L33.7243 3.80233ZM64.6748 30.7417L64.8321 31.3943L65.8042 31.161L65.6469 30.5085L64.6748 30.7417ZM64.8364 42.6767C61.5965 56.1533 50.5845 66.3601 36.9002 68.57L37.0608 69.5573C51.1427 67.2831 62.4746 56.7798 65.8087 42.9116L64.8364 42.6767ZM37.8146 4.66158C51.0482 7.44158 61.5055 17.5952 64.6748 30.7417L65.6469 30.5085C62.387 16.9862 51.6308 6.54239 38.019 3.68294L37.8146 4.66158ZM64.8321 31.3943C65.7261 35.1029 65.7276 38.9696 64.8364 42.6767L65.8087 42.9116C66.7369 39.0507 66.7353 35.0235 65.8042 31.161L64.8321 31.3943Z" fill="white"/>
<ellipse cx="32.8041" cy="36.8031" rx="2.34315" ry="2.50393" fill="white"/>
<line x1="32.8899" y1="36.803" x2="32.8899" y2="18.0236" stroke="white"/>
<line y1="-0.5" x2="17.9734" y2="-0.5" transform="matrix(0.922736 0.385433 -0.343526 0.939143 32.0719 37.116)" stroke="white"/>
</svg>
